<?xml version="1.0" encoding="UTF-8"?>
<svg xmlns="http://www.w3.org/2000/svg" xmlns:xlink="http://www.w3.org/1999/xlink" width="69px" height="69px" viewBox="0 0 69 69" version="1.1">
<g id="surface1">
<path style=" stroke:none;fill-rule:nonzero;fill:rgb(100%,100%,100%);fill-opacity:1;" d="M 36.851562 3.136719 C 36.851562 1.835938 35.800781 0.785156 34.5 0.785156 C 33.199219 0.785156 32.148438 1.835938 32.148438 3.136719 L 32.148438 25.089844 C 32.148438 26.390625 33.199219 27.441406 34.5 27.441406 C 35.800781 27.441406 36.851562 26.390625 36.851562 25.089844 Z M 36.851562 3.136719 "/>
<path style=" stroke:none;fill-rule:nonzero;fill:rgb(100%,100%,100%);fill-opacity:1;" d="M 17.09375 11.289062 C 18.132812 10.507812 18.34375 9.035156 17.5625 7.996094 C 16.78125 6.957031 15.308594 6.75 14.269531 7.527344 C 6.085938 13.675781 0.785156 23.46875 0.785156 34.5 C 0.785156 53.121094 15.878906 68.214844 34.5 68.214844 C 53.121094 68.214844 68.214844 53.121094 68.214844 34.5 C 68.214844 23.550781 62.78125 13.683594 54.746094 7.539062 C 53.714844 6.75 52.238281 6.949219 51.449219 7.980469 C 50.660156 9.011719 50.855469 10.488281 51.890625 11.277344 C 58.847656 16.597656 63.511719 25.121094 63.511719 34.5 C 63.511719 50.523438 50.523438 63.511719 34.5 63.511719 C 18.476562 63.511719 5.488281 50.523438 5.488281 34.5 C 5.488281 25.011719 10.042969 16.585938 17.09375 11.289062 Z M 17.09375 11.289062 "/>
</g>
</svg>
