<?xml version="1.0" encoding="UTF-8"?>
<svg xmlns="http://www.w3.org/2000/svg" xmlns:xlink="http://www.w3.org/1999/xlink" width="69px" height="69px" viewBox="0 0 69 76" version="1.1">
<g id="surface1">
<path style=" stroke:none;fill-rule:nonzero;fill:rgb(100%,100%,100%);fill-opacity:1;" d="M 48.992188 1.785156 C 47.867188 0.671875 46.046875 0.671875 44.925781 1.785156 C 43.800781 2.898438 43.800781 4.703125 44.925781 5.816406 L 47.683594 8.550781 L 30.046875 8.550781 C 23.503906 8.550781 19.515625 8.546875 16.1875 9.621094 C 9.480469 11.78125 4.21875 16.996094 2.039062 23.648438 C 0.957031 26.945312 0.957031 30.902344 0.957031 37.386719 L 0.957031 38.613281 C 0.957031 45.097656 0.957031 49.054688 2.039062 52.351562 C 2.527344 53.847656 4.148438 54.667969 5.660156 54.183594 C 7.171875 53.695312 7.996094 52.085938 7.503906 50.589844 C 6.742188 48.265625 6.707031 45.292969 6.707031 38 C 6.707031 30.707031 6.742188 27.734375 7.503906 25.410156 C 9.117188 20.492188 13.007812 16.636719 17.964844 15.039062 C 20.3125 14.285156 23.308594 14.25 30.667969 14.25 L 46.683594 14.25 L 44.160156 16.335938 C 42.941406 17.34375 42.773438 19.140625 43.792969 20.347656 C 44.808594 21.558594 46.621094 21.722656 47.839844 20.714844 L 53.242188 16.253906 C 54.714844 15.035156 55.523438 13.328125 55.640625 11.589844 C 55.765625 9.757812 55.121094 7.863281 53.691406 6.441406 Z M 48.992188 1.785156 "/>
<path style=" stroke:none;fill-rule:nonzero;fill:rgb(100%,100%,100%);fill-opacity:1;" d="M 66.964844 23.648438 C 66.472656 22.152344 64.851562 21.332031 63.339844 21.816406 C 61.832031 22.304688 61.003906 23.914062 61.496094 25.410156 C 62.257812 27.734375 62.292969 30.707031 62.292969 38 C 62.292969 45.292969 62.257812 48.265625 61.496094 50.589844 C 59.882812 55.507812 55.996094 59.363281 51.035156 60.960938 C 48.691406 61.714844 45.691406 61.75 38.332031 61.75 L 30.667969 61.75 C 26.957031 61.75 24.359375 61.742188 22.390625 61.636719 L 25.03125 59.015625 C 26.15625 57.902344 26.15625 56.097656 25.03125 54.984375 C 23.910156 53.871094 22.089844 53.871094 20.96875 54.984375 L 16.269531 59.640625 C 15.242188 60.660156 14.613281 61.933594 14.394531 63.253906 C 14.019531 65.480469 14.804688 67.875 16.71875 69.453125 L 22.117188 73.914062 C 23.335938 74.921875 25.152344 74.757812 26.167969 73.550781 C 27.183594 72.339844 27.019531 70.542969 25.800781 69.535156 L 23.1875 67.378906 C 25.140625 67.449219 27.390625 67.449219 30.070312 67.449219 L 38.953125 67.449219 C 45.496094 67.449219 49.484375 67.453125 52.8125 66.378906 C 59.523438 64.21875 64.78125 59.003906 66.964844 52.351562 C 68.042969 49.054688 68.042969 45.097656 68.042969 38.613281 L 68.042969 37.386719 C 68.042969 30.902344 68.042969 26.945312 66.964844 23.648438 Z M 66.964844 23.648438 "/>
</g>
</svg>
