<svg width="22" height="22" viewBox="0 0 22 22" fill="none" xmlns="http://www.w3.org/2000/svg">
<g clip-path="url(#clip0_1_8)">
<path d="M11.75 1C11.75 0.585786 11.4142 0.25 11 0.25C10.5858 0.25 10.25 0.585786 10.25 1V8C10.25 8.41421 10.5858 8.75 11 8.75C11.4142 8.75 11.75 8.41421 11.75 8V1Z" fill="white"/>
<path d="M5.45046 3.59966C5.78164 3.35087 5.84844 2.88072 5.59966 2.54954C5.35087 2.21836 4.88072 2.15156 4.54954 2.40034C1.94046 4.36028 0.25 7.48258 0.25 11C0.25 16.9371 5.06294 21.75 11 21.75C16.9371 21.75 21.75 16.9371 21.75 11C21.75 7.50873 20.0178 4.363 17.4555 2.40417C17.1264 2.1526 16.6557 2.21543 16.4042 2.5445C16.1526 2.87357 16.2154 3.34427 16.5445 3.59583C18.7627 5.29161 20.25 8.00913 20.25 11C20.25 16.1086 16.1086 20.25 11 20.25C5.89137 20.25 1.75 16.1086 1.75 11C1.75 7.97446 3.20215 5.28858 5.45046 3.59966Z" fill="white"/>
</g>
<defs>
<clipPath id="clip0_1_8">
<rect width="22" height="22" fill="white"/>
</clipPath>
</defs>
</svg>
