<svg width="18" height="20" viewBox="0 0 18 20" fill="none" xmlns="http://www.w3.org/2000/svg">
<g clip-path="url(#clip0_1_21)">
<path d="M12.7804 0.46967C12.4875 0.176777 12.0126 0.176777 11.7197 0.46967C11.4268 0.762563 11.4268 1.23744 11.7197 1.53033L12.4394 2.25L7.83819 2.24998C6.13192 2.24971 5.0907 2.24955 4.22319 2.53142C2.47267 3.1002 1.10024 4.47263 0.531458 6.22315C0.249584 7.09067 0.249748 8.13188 0.250016 9.83816V10.1618C0.249748 11.8681 0.249584 12.9093 0.531458 13.7768C0.659457 14.1708 1.08257 14.3864 1.47651 14.2584C1.87045 14.1304 2.08604 13.7073 1.95804 13.3133C1.75929 12.7016 1.75003 11.9197 1.75003 10C1.75003 8.08034 1.75929 7.29839 1.95804 6.68668C2.37844 5.39282 3.39285 4.37841 4.68671 3.95801C5.29842 3.75925 6.08038 3.75 8.00003 3.75H12.1785L11.5199 4.29883C11.2017 4.56401 11.1587 5.03693 11.4239 5.35514C11.689 5.67335 12.162 5.71634 12.4802 5.45117L13.8889 4.27719C14.2732 3.95697 14.4839 3.5078 14.5147 3.05027C14.5471 2.5677 14.3796 2.06894 14.0061 1.69537L12.7804 0.46967Z" fill="white"/>
<path d="M17.4686 6.22315C17.3406 5.82921 16.9175 5.61362 16.5236 5.74162C16.1296 5.86962 15.914 6.29274 16.042 6.68668C16.2408 7.29839 16.25 8.08034 16.25 10C16.25 11.9197 16.2408 12.7016 16.042 13.3133C15.6216 14.6072 14.6072 15.6216 13.3134 16.042C12.7016 16.2407 11.9197 16.25 9.99999 16.25H8.00002C7.03276 16.25 6.35443 16.2478 5.84076 16.2199L6.53035 15.5303C6.82325 15.2374 6.82325 14.7626 6.53035 14.4697C6.23746 14.1768 5.76259 14.1768 5.46969 14.4697L4.244 15.6954C3.97574 15.9636 3.81261 16.2982 3.75506 16.6453C3.65776 17.2321 3.86235 17.8616 4.36111 18.2772L5.76988 19.4512C6.08809 19.7163 6.56102 19.6733 6.82619 19.3551C7.09136 19.0369 7.04837 18.564 6.73016 18.2988L6.04889 17.7311C6.55818 17.7502 7.14548 17.7501 7.84426 17.75H10.1619C11.8681 17.7503 12.9094 17.7504 13.7769 17.4686C15.5274 16.8998 16.8998 15.5274 17.4686 13.7768C17.7505 12.9093 17.7503 11.8681 17.75 10.1618V9.83817C17.7503 8.13189 17.7505 7.09067 17.4686 6.22315Z" fill="white"/>
</g>
<defs>
<clipPath id="clip0_1_21">
<rect width="18" height="20" fill="white"/>
</clipPath>
</defs>
</svg>
