<svg width="24" height="24" viewBox="0 0 24 24" fill="none" xmlns="http://www.w3.org/2000/svg">
<path fill-rule="evenodd" clip-rule="evenodd" d="M11.671 4.03518C11.3962 5.88864 11.0509 8.77822 12.919 12.0139C14.7871 15.2496 17.4622 16.3954 19.2048 17.0841C19.265 17.1079 19.3251 17.1315 19.3848 17.155C19.7454 17.2967 20.0924 17.4332 20.3618 17.567C20.5217 17.6465 20.692 17.7429 20.8396 17.8634C20.9847 17.9819 21.1627 18.1681 21.2467 18.4406C21.4376 19.0598 21.0139 19.53 20.7542 19.7662C20.4456 20.0468 19.979 20.3508 19.3766 20.6987C14.2349 23.6672 7.66031 21.9056 4.69178 16.7639C1.72325 11.6223 3.48491 5.04767 8.62655 2.07914C9.22904 1.73129 9.7256 1.47922 10.1229 1.35231C10.4573 1.24552 11.0763 1.11367 11.5172 1.58859C11.7112 1.79764 11.7834 2.04484 11.8135 2.22975C11.8441 2.41785 11.8424 2.61355 11.8313 2.79169C11.8125 3.09193 11.7571 3.46072 11.6996 3.84384C11.6901 3.90731 11.6805 3.97117 11.671 4.03518ZM10.3181 2.88302C10.0913 2.98335 9.7851 3.1423 9.37655 3.37818C4.95234 5.9325 3.4365 11.5897 5.99082 16.0139C8.54513 20.4381 14.2023 21.954 18.6266 19.3996C19.0351 19.1638 19.3258 18.9781 19.5262 18.8318C19.3446 18.7513 19.1208 18.6632 18.8442 18.5543C18.7832 18.5303 18.7197 18.5053 18.6534 18.4791C16.8343 17.7601 13.7519 16.4564 11.62 12.7639C9.48811 9.0714 9.90031 5.75014 10.1872 3.81517C10.1977 3.74475 10.2078 3.67722 10.2175 3.61243C10.2614 3.31836 10.297 3.08048 10.3181 2.88302ZM10.7181 2.74809C10.7181 2.74809 10.7108 2.74977 10.699 2.74983C10.7126 2.74757 10.7181 2.74809 10.7181 2.74809ZM19.832 18.5685C19.8379 18.5583 19.843 18.5529 19.843 18.5529C19.843 18.5529 19.8407 18.5578 19.832 18.5685Z" fill="white"/>
</svg>
