<?xml version="1.0" encoding="UTF-8"?>
<svg xmlns="http://www.w3.org/2000/svg" xmlns:xlink="http://www.w3.org/1999/xlink" width="69px" height="69px" viewBox="0 0 69 69" version="1.1">
<g id="surface1">
<path style=" stroke:none;fill-rule:evenodd;fill:rgb(100%,100%,100%);fill-opacity:1;" d="M 33.554688 11.601562 C 32.765625 16.929688 31.769531 25.238281 37.140625 34.539062 C 42.511719 43.84375 50.203125 47.136719 55.214844 49.117188 C 55.386719 49.183594 55.558594 49.253906 55.730469 49.320312 C 56.769531 49.726562 57.765625 50.121094 58.539062 50.503906 C 59 50.734375 59.488281 51.011719 59.914062 51.355469 C 60.332031 51.699219 60.84375 52.234375 61.085938 53.015625 C 61.632812 54.796875 60.414062 56.148438 59.667969 56.828125 C 58.78125 57.632812 57.441406 58.507812 55.707031 59.507812 C 40.925781 68.042969 22.023438 62.980469 13.488281 48.195312 C 4.953125 33.414062 10.019531 14.511719 24.800781 5.976562 C 26.535156 4.976562 27.960938 4.253906 29.101562 3.886719 C 30.066406 3.582031 31.84375 3.203125 33.113281 4.566406 C 33.667969 5.167969 33.878906 5.878906 33.964844 6.410156 C 34.050781 6.953125 34.046875 7.515625 34.015625 8.027344 C 33.960938 8.890625 33.800781 9.949219 33.636719 11.050781 C 33.609375 11.234375 33.582031 11.417969 33.554688 11.601562 Z M 29.664062 8.289062 C 29.011719 8.578125 28.132812 9.035156 26.957031 9.710938 C 14.238281 17.054688 9.878906 33.320312 17.222656 46.039062 C 24.566406 58.757812 40.832031 63.117188 53.550781 55.773438 C 54.726562 55.097656 55.5625 54.5625 56.136719 54.140625 C 55.617188 53.910156 54.972656 53.65625 54.175781 53.34375 C 54 53.273438 53.820312 53.203125 53.628906 53.128906 C 48.398438 51.058594 39.535156 47.3125 33.40625 36.695312 C 27.277344 26.082031 28.464844 16.53125 29.289062 10.96875 C 29.320312 10.765625 29.347656 10.570312 29.375 10.386719 C 29.5 9.539062 29.605469 8.855469 29.664062 8.289062 Z M 30.816406 7.902344 C 30.816406 7.902344 30.792969 7.90625 30.757812 7.90625 C 30.796875 7.898438 30.816406 7.902344 30.816406 7.902344 Z M 57.015625 53.382812 C 57.035156 53.355469 57.046875 53.339844 57.046875 53.339844 C 57.046875 53.339844 57.042969 53.355469 57.015625 53.382812 Z M 57.015625 53.382812 "/>
</g>
</svg>
